<?xml version="1.0" encoding="UTF-8"?>
<svg version="1.1" xmlns="http://www.w3.org/2000/svg" width="155" height="172">
<path d="M0 0 C51.15 0 102.3 0 155 0 C155 56.76 155 113.52 155 172 C103.85 172 52.7 172 0 172 C0 115.24 0 58.48 0 0 Z " fill="#FDFDFD" transform="translate(0,0)"/>
<path d="M0 0 C0.70833984 0.00644531 1.41667969 0.01289063 2.14648438 0.01953125 C6.9027211 0.08954025 11.49949291 0.40616549 16.1875 1.1875 C16.1875 6.4675 16.1875 11.7475 16.1875 17.1875 C15.09582538 15.00415076 14.0077178 12.81894649 12.9375 10.625 C10.60213925 7.3721761 8.99856972 6.48054151 5.1875 5.1875 C-0.16686629 4.53413983 -4.40690383 4.50980185 -9.3125 6.875 C-13.50157439 10.74989381 -14.98509515 13.42527313 -15.25 19.125 C-15.36391536 23.91703943 -13.76801709 26.45848733 -10.8125 30.1875 C-8.55152614 32.30183506 -6.14655865 34.18490883 -3.6875 36.0625 C-3.02169922 36.58279785 -2.35589844 37.1030957 -1.66992188 37.63916016 C-0.33692547 38.68076483 0.99863709 39.71909493 2.33691406 40.75390625 C5.60536151 43.28587504 8.83100891 45.87050057 12.046875 48.46875 C13.395425 49.55152737 14.75839385 50.61681218 16.140625 51.65625 C21.91398426 56.17453116 25.869397 62.23319099 28.1875 69.1875 C28.30998619 71.82522577 28.37262384 74.42495795 28.375 77.0625 C28.38724609 77.77019531 28.39949219 78.47789063 28.41210938 79.20703125 C28.42375121 83.37480803 27.87666727 86.40509016 26.1875 90.1875 C26.11103835 92.5195802 26.09606701 94.85595878 26.1875 97.1875 C26.8475 97.1875 27.5075 97.1875 28.1875 97.1875 C28.91453125 98.47720703 28.91453125 98.47720703 29.65625 99.79296875 C34.32356719 108.03785635 39.16804525 116.15102069 44.1875 124.1875 C45.0143888 125.51558398 45.84120882 126.84371079 46.66796875 128.171875 C51.46681478 135.87058739 56.31670445 143.5333927 61.1875 151.1875 C61.1875 118.8475 61.1875 86.5075 61.1875 53.1875 C62.5075 53.1875 63.8275 53.1875 65.1875 53.1875 C65.1875 88.1675 65.1875 123.1475 65.1875 159.1875 C38.7875 159.1875 12.3875 159.1875 -14.8125 159.1875 C-14.8125 140.79914825 -14.8125 140.79914825 -14.59375 133.3125 C-14.57155396 132.49168945 -14.54935791 131.67087891 -14.52648926 130.82519531 C-14.45718908 128.27923602 -14.38491981 125.73337224 -14.3125 123.1875 C-14.26412297 121.42969299 -14.21594484 119.6718805 -14.16796875 117.9140625 C-14.0517622 113.67180853 -13.93289882 109.42963697 -13.8125 105.1875 C-15.22390259 104.74071899 -15.22390259 104.74071899 -16.66381836 104.28491211 C-23.7700458 101.80817393 -28.61861236 96.3390418 -31.875 89.6875 C-35.13853194 81.47785391 -34.29111406 74.26603962 -30.8125 66.1875 C-29.00317583 63.34230322 -27.01441661 60.73858785 -24.8125 58.1875 C-24.4825 58.8475 -24.1525 59.5075 -23.8125 60.1875 C-24.5546875 61.9921875 -24.5546875 61.9921875 -25.6875 64.0625 C-29.41189126 70.91225455 -30.06707663 78.71477989 -28.31640625 86.3515625 C-25.492733 93.59420461 -20.38639642 96.43098776 -13.8125 100.1875 C-14.1425 84.6775 -14.4725 69.1675 -14.8125 53.1875 C0.1875 53.1875 0.1875 53.1875 3.59375 56.046875 C4.70751953 57.91333008 4.70751953 57.91333008 5.6875 59.9375 C6.26346924 60.95009888 6.26346924 60.95009888 6.85107422 61.9831543 C7.62944429 63.36110597 8.38489289 64.75227154 9.11621094 66.15576172 C10.13079144 68.07995016 11.21368685 69.9318218 12.3515625 71.78515625 C17.1875 79.71339641 17.1875 79.71339641 17.1875 82.1875 C17.8475 82.1875 18.5075 82.1875 19.1875 82.1875 C18.29534965 72.23540899 16.58350217 65.11730345 9.0625 58.24609375 C6.48893455 56.15083898 3.84879954 54.17015039 1.1875 52.1875 C-1.25978369 50.28321811 -3.69139056 48.35920787 -6.125 46.4375 C-7.2874973 45.5257061 -8.45024748 44.6142345 -9.61328125 43.703125 C-10.15654053 43.27531738 -10.6997998 42.84750977 -11.25952148 42.40673828 C-12.68548333 41.28722036 -14.11969978 40.1782375 -15.5546875 39.0703125 C-20.08482017 35.29258941 -22.50427017 31.71095167 -23.23046875 25.765625 C-23.39448941 18.36126398 -22.94561261 13.07790524 -18.1640625 7.140625 C-17.59429687 6.57859375 -17.02453125 6.0165625 -16.4375 5.4375 C-15.87289062 4.86515625 -15.30828125 4.2928125 -14.7265625 3.703125 C-10.15063303 0.07973595 -5.65363928 -0.10577436 0 0 Z " fill="#D4A545" transform="translate(79.8125,12.8125)"/>
<path d="M0 0 C3.26542952 3.01257546 5.47282535 6.13123079 7.75 9.9375 C8.45424768 11.10557693 9.15867984 12.27354266 9.86328125 13.44140625 C10.2185791 14.03453613 10.57387695 14.62766602 10.93994141 15.23876953 C12.58138177 17.96593461 14.26164872 20.66888487 15.9375 23.375 C19.23632409 28.73073794 22.47277254 34.12139483 25.69482422 39.5234375 C28.62660753 44.42127035 31.67257384 49.23810672 34.78515625 54.0234375 C36 56 36 56 36 57 C15.87 57 -4.26 57 -25 57 C-25.73157274 53.34213632 -26.1230828 50.64838229 -26.11352539 47.02612305 C-26.11344986 46.06550461 -26.11337433 45.10488617 -26.11329651 44.11515808 C-26.10813522 43.0910231 -26.10297394 42.06688812 -26.09765625 41.01171875 C-26.0962413 39.95338333 -26.09482635 38.89504791 -26.09336853 37.80464172 C-26.08778159 34.43223211 -26.07523144 31.05988946 -26.0625 27.6875 C-26.05748331 25.39778742 -26.0529207 23.10807379 -26.04882812 20.81835938 C-26.03781643 15.21221683 -26.02109126 9.6061132 -26 4 C-24.83734619 3.94593994 -23.67469238 3.89187988 -22.47680664 3.83618164 C-20.93373945 3.75700488 -19.39069021 3.6774779 -17.84765625 3.59765625 C-17.0834436 3.56305298 -16.31923096 3.52844971 -15.53186035 3.49279785 C-9.89510246 3.19118053 -5.24024445 2.19137495 0 0 Z " fill="#FDFEFC" transform="translate(94,115)"/>
<path d="M0 0 C0.70833984 0.00644531 1.41667969 0.01289063 2.14648438 0.01953125 C6.9027211 0.08954025 11.49949291 0.40616549 16.1875 1.1875 C16.1875 6.4675 16.1875 11.7475 16.1875 17.1875 C15.09582538 15.00415076 14.0077178 12.81894649 12.9375 10.625 C10.60213925 7.3721761 8.99856972 6.48054151 5.1875 5.1875 C-0.16686629 4.53413983 -4.40690383 4.50980185 -9.3125 6.875 C-13.50157439 10.74989381 -14.98509515 13.42527313 -15.25 19.125 C-15.36391536 23.91703943 -13.76801709 26.45848733 -10.8125 30.1875 C-8.55152614 32.30183506 -6.14655865 34.18490883 -3.6875 36.0625 C-3.02169922 36.58279785 -2.35589844 37.1030957 -1.66992188 37.63916016 C-0.33692547 38.68076483 0.99863709 39.71909493 2.33691406 40.75390625 C5.60536151 43.28587504 8.83100891 45.87050057 12.046875 48.46875 C13.395425 49.55152737 14.75839385 50.61681218 16.140625 51.65625 C21.91398426 56.17453116 25.869397 62.23319099 28.1875 69.1875 C28.3359944 71.80614161 28.4185027 74.3807477 28.4375 77 C28.458125 77.69931641 28.47875 78.39863281 28.5 79.11914062 C28.53585728 83.91056977 27.63422136 87.08602236 25.1875 91.1875 C22.1875 90.1875 22.1875 90.1875 20.5234375 88.01171875 C18.99532382 84.78123281 18.85581989 82.55656277 18.8125 79 C18.26616612 70.03607744 15.52157626 64.01010594 8.875 57.9375 C4.23500685 54.11140729 -0.60010426 50.54780393 -5.4453125 46.98779297 C-21.1035631 35.40085698 -21.1035631 35.40085698 -22.8125 29.1875 C-23.64882602 21.77150702 -23.71963065 15.71149955 -19.8125 9.1875 C-18.1640625 7.140625 -18.1640625 7.140625 -16.4375 5.4375 C-15.87289062 4.86515625 -15.30828125 4.2928125 -14.7265625 3.703125 C-10.15063303 0.07973595 -5.65363928 -0.10577436 0 0 Z " fill="#262625" transform="translate(79.8125,12.8125)"/>
<path d="M0 0 C1.32 0 2.64 0 4 0 C4 34.98 4 69.96 4 106 C-0.95 106 -5.9 106 -11 106 C-14.44320052 102.4457285 -15.88019416 100.29093871 -18 96 C-19.1440489 93.94576001 -20.31374798 91.90722259 -21.48291016 89.8671875 C-22.63954312 87.83428902 -23.76480107 85.78657689 -24.88671875 83.734375 C-26.2199111 81.313214 -27.59825663 79.1347794 -29.1796875 76.84765625 C-32.37284251 71.85235581 -33.63971372 66.14866184 -32.44921875 60.2890625 C-31.73096102 58.13088525 -30.94884968 56.06604366 -30 54 C-29.8453125 54.9590625 -29.8453125 54.9590625 -29.6875 55.9375 C-29.460625 56.618125 -29.23375 57.29875 -29 58 C-28.01 58.33 -27.02 58.66 -26 59 C-25.25 60.9375 -25.25 60.9375 -25 63 C-25.495 63.99 -25.495 63.99 -26 65 C-25.24074219 64.91878906 -24.48148438 64.83757812 -23.69921875 64.75390625 C-21 65 -21 65 -19.33203125 66.58984375 C-18.83058594 67.36457031 -18.32914063 68.13929688 -17.8125 68.9375 C-17.2246875 69.83855469 -16.636875 70.73960937 -16.03125 71.66796875 C-12.35375235 77.70047933 -8.77215157 83.78625917 -5.26098633 89.91699219 C-3.59615626 92.66710451 -1.78323621 95.32514569 0 98 C0 65.66 0 33.32 0 0 Z " fill="#D7A644" transform="translate(141,66)"/>
<path d="M0 0 C0.66 0 1.32 0 2 0 C2.3403125 0.64324219 2.680625 1.28648438 3.03125 1.94921875 C9.12525647 13.31065102 16.04364037 24.15242671 23 35 C19.87181117 39.77616213 16.4228336 40.80855352 11 42 C7.1071127 42.37651414 3.74807727 42.24935909 0 41 C0 27.47 0 13.94 0 0 Z " fill="#FAF9F6" transform="translate(68,73)"/>
<path d="M0 0 C0 1.32 0 2.64 0 4 C0.7528125 4.23589844 1.505625 4.47179687 2.28125 4.71484375 C9.20632494 7.98833463 13.83057976 18.22299082 17 25 C17 25.66 17 26.32 17 27 C17.66 27 18.32 27 19 27 C20.625 29.75 20.625 29.75 22 33 C21.34 34.32 20.68 35.64 20 37 C18.68 34.03 17.36 31.06 16 28 C15.67 28 15.34 28 15 28 C14.80664062 28.78246094 14.61328125 29.56492187 14.4140625 30.37109375 C14.02347656 31.88896484 14.02347656 31.88896484 13.625 33.4375 C13.36976562 34.44683594 13.11453125 35.45617187 12.8515625 36.49609375 C12 39 12 39 10 40 C9.56171875 39.28199219 9.1234375 38.56398437 8.671875 37.82421875 C8.03765625 36.78910156 7.4034375 35.75398438 6.75 34.6875 C6.23058838 33.83744385 6.23058838 33.83744385 5.70068359 32.97021484 C3.46825719 29.33372242 1.18907626 25.73245092 -1.1328125 22.15234375 C-1.66874023 21.32065674 -2.20466797 20.48896973 -2.75683594 19.63208008 C-3.81802377 17.9879434 -4.88616299 16.34826817 -5.96191406 14.71362305 C-8.87159051 10.1894079 -10.83529053 6.26224157 -12 1 C-9.19301445 -1.80698555 -3.49996404 -1.25998705 0 0 Z " fill="#D8A53F" transform="translate(80,68)"/>
<path d="M0 0 C4.95 0 9.9 0 15 0 C18.8671875 4.5 18.8671875 4.5 20 8 C17.5625 7.25 17.5625 7.25 15 6 C14.505 4.02 14.505 4.02 14 2 C10.7 2.33 7.4 2.66 4 3 C4 36.99 4 70.98 4 106 C2.68 106 1.36 106 0 106 C-0.07548128 93.99008931 0.15852355 82.00438679 0.5 70 C0.54837703 68.24219299 0.59655516 66.4843805 0.64453125 64.7265625 C0.7607378 60.48430853 0.87960118 56.24213697 1 52 C0.05906494 51.702146 -0.88187012 51.40429199 -1.85131836 51.09741211 C-8.9575458 48.62067393 -13.80611236 43.1515418 -17.0625 36.5 C-20.32603194 28.29035391 -19.47861406 21.07853962 -16 13 C-14.19067583 10.15480322 -12.20191661 7.55108785 -10 5 C-9.67 5.66 -9.34 6.32 -9 7 C-9.7421875 8.8046875 -9.7421875 8.8046875 -10.875 10.875 C-14.59939126 17.72475455 -15.25457663 25.52727989 -13.50390625 33.1640625 C-10.680233 40.40670461 -5.57389642 43.24348776 1 47 C0.67 31.49 0.34 15.98 0 0 Z " fill="#D3A969" transform="translate(65,66)"/>
<path d="M0 0 C1.79671882 1.33873167 3.59138903 2.68025659 5.37890625 4.03125 C7.31291699 5.48391976 9.26030843 6.91881538 11.21484375 8.34375 C26.82104213 19.84837694 26.82104213 19.84837694 29 29 C29.14458409 32.3409253 29.11678414 35.6586759 29 39 C28.34 39 27.68 39 27 39 C26.52691406 38.15179688 26.05382812 37.30359375 25.56640625 36.4296875 C24.17796696 33.95101875 22.75687885 31.49401594 21.3203125 29.04296875 C19.77548697 26.39955782 18.35233404 23.73077257 16.9921875 20.98828125 C13.79376908 14.45111714 13.79376908 14.45111714 8.13671875 10.30029297 C3.73854613 9.44357435 -0.54197995 9.58885191 -5 10 C-4.83701416 10.96043213 -4.67402832 11.92086426 -4.50610352 12.91040039 C-3.86458186 17.42368313 -3.87434053 21.88245633 -3.90234375 26.43359375 C-3.9037587 27.31153091 -3.90517365 28.18946808 -3.90663147 29.0940094 C-3.91219179 31.87520882 -3.92473679 34.65632526 -3.9375 37.4375 C-3.94252013 39.33268112 -3.94708214 41.22786352 -3.95117188 43.12304688 C-3.9621482 47.74872948 -3.97938518 52.37435071 -4 57 C-4.99 56.67 -5.98 56.34 -7 56 C-6.34 56 -5.68 56 -5 56 C-5.06058594 54.93152832 -5.12117188 53.86305664 -5.18359375 52.76220703 C-5.41004697 48.75536332 -5.63279663 44.74832046 -5.85449219 40.74121094 C-5.95050472 39.01491846 -6.04748922 37.28867973 -6.14550781 35.5625 C-7.58553144 10.17106289 -7.58553144 10.17106289 -6 7 C-3.36 7 -0.72 7 2 7 C1.34 6.34 0.68 5.68 0 5 C0 3.33333333 0 1.66666667 0 0 Z " fill="#F8F3E3" transform="translate(70,56)"/>
<path d="M0 0 C0.33 0 0.66 0 1 0 C1.14695312 1.10408203 1.14695312 1.10408203 1.296875 2.23046875 C2.4307831 9.89347687 2.4307831 9.89347687 7 16 C9.43387753 17.21693876 11.41838846 17.31959896 14.125 17.5625 C15.03507812 17.64628906 15.94515625 17.73007813 16.8828125 17.81640625 C17.58148438 17.87699219 18.28015625 17.93757813 19 18 C19 18.66 19 19.32 19 20 C18.41992188 20.02578125 17.83984375 20.0515625 17.2421875 20.078125 C11.79133645 20.47389636 8.28952531 21.33821011 4 25 C2.22866744 27.9069604 1.67248294 30.37852672 1.375 33.75 C1.30023437 34.54921875 1.22546875 35.3484375 1.1484375 36.171875 C1.09945313 36.77515625 1.05046875 37.3784375 1 38 C-1.39602374 35.60397626 -1.48831477 34.34838352 -2.0625 31.0625 C-2.56389824 28.24886858 -3.0937017 25.71889491 -4 23 C-8.80934848 20.83579319 -13.80520691 20.43867142 -19 20 C-19 19.34 -19 18.68 -19 18 C-18.00419922 17.94392578 -18.00419922 17.94392578 -16.98828125 17.88671875 C-9.98476743 17.42735111 -9.98476743 17.42735111 -4 14 C-2.22271512 11.00494585 -1.5030827 8.15959178 -0.875 4.75 C-0.70742188 3.85796875 -0.53984375 2.9659375 -0.3671875 2.046875 C-0.24601562 1.37140625 -0.12484375 0.6959375 0 0 Z " fill="#2F2F2F" transform="translate(19,118)"/>
<path d="M0 0 C1.32 0 2.64 0 4 0 C4 34.98 4 69.96 4 106 C-0.95 106 -5.9 106 -11 106 C-13.96766964 102.60837756 -15.44095512 100.90924686 -17 97 C-16.01 97 -15.02 97 -14 97 C-10 101.22857143 -10 101.22857143 -10 105 C-6.37 105 -2.74 105 1 105 C0.67 103.35 0.34 101.7 0 100 C-0.08275424 98.53590247 -0.12209909 97.06877393 -0.12025452 95.6023407 C-0.12162918 94.75405197 -0.12300385 93.90576324 -0.12442017 93.0317688 C-0.12082489 92.11467133 -0.11722961 91.19757385 -0.11352539 90.25268555 C-0.11367142 89.27659836 -0.11381744 88.30051117 -0.1139679 87.29484558 C-0.11327242 84.0754472 -0.1054971 80.856107 -0.09765625 77.63671875 C-0.09579077 75.40184053 -0.09436748 73.1669619 -0.09336853 70.93208313 C-0.08955357 65.05486926 -0.07973198 59.17768017 -0.06866455 53.30047607 C-0.05842849 47.30123225 -0.0538662 41.30198442 -0.04882812 35.30273438 C-0.03810882 23.53514537 -0.02104463 11.76757475 0 0 Z " fill="#D4A862" transform="translate(141,66)"/>
<path d="M0 0 C0.66 0 1.32 0 2 0 C3.2890625 1.4609375 3.2890625 1.4609375 4.625 3.375 C5.29402344 4.31472656 5.29402344 4.31472656 5.9765625 5.2734375 C7 7 7 7 7 9 C7.66 9 8.32 9 9 9 C9.99 11.97 10.98 14.94 12 18 C12.66 18 13.32 18 14 18 C14.33 19.98 14.66 21.96 15 24 C15.99 24.33 16.98 24.66 18 25 C18 25.66 18 26.32 18 27 C18.66 27 19.32 27 20 27 C19.95875 26.05125 19.9175 25.1025 19.875 24.125 C20 21 20 21 22 19 C22 18.01 22 17.02 22 16 C21.34 15.67 20.68 15.34 20 15 C19.375 12.4375 19.375 12.4375 19 10 C18.34 10 17.68 10 17 10 C16.67 7.36 16.34 4.72 16 2 C18.96926381 5.55391974 21.42318536 9.18517995 23.75 13.1875 C24.67039062 14.75564453 24.67039062 14.75564453 25.609375 16.35546875 C27 19 27 19 27 21 C27.66 21 28.32 21 29 21 C30.625 23.75 30.625 23.75 32 27 C31.34 28.32 30.68 29.64 30 31 C28.68 28.03 27.36 25.06 26 22 C25.67 22 25.34 22 25 22 C24.80664062 22.78246094 24.61328125 23.56492187 24.4140625 24.37109375 C24.15367188 25.38300781 23.89328125 26.39492187 23.625 27.4375 C23.24214844 28.95150391 23.24214844 28.95150391 22.8515625 30.49609375 C22 33 22 33 20 34 C19.56171875 33.28199219 19.1234375 32.56398437 18.671875 31.82421875 C18.03765625 30.78910156 17.4034375 29.75398438 16.75 28.6875 C16.40517578 28.12442139 16.06035156 27.56134277 15.70507812 26.98120117 C13.43599121 23.29098551 11.13043444 19.62638233 8.796875 15.9765625 C8.25192383 15.12231689 7.70697266 14.26807129 7.14550781 13.38793945 C6.05486715 11.68094118 4.96050482 9.97631464 3.86230469 8.27416992 C3.11062012 7.09624878 3.11062012 7.09624878 2.34375 5.89453125 C1.66602539 4.84036011 1.66602539 4.84036011 0.97460938 3.76489258 C0 2 0 2 0 0 Z " fill="#D6A748" transform="translate(70,74)"/>
<path d="M0 0 C0.33 0.66 0.66 1.32 1 2 C0.2578125 3.8046875 0.2578125 3.8046875 -0.875 5.875 C-4.59939126 12.72475455 -5.25457663 20.52727989 -3.50390625 28.1640625 C-0.76207214 35.19678954 4.64477046 38.63546672 11 42 C11 43.65 11 45.3 11 47 C4.58618563 45.68434577 0.22624587 41.79337077 -4 37 C-8.49132746 29.83674857 -10.15035717 23.8743649 -8.5234375 15.56640625 C-6.94646496 9.32501491 -4.18410432 4.84760307 0 0 Z " fill="#3F3F3F" transform="translate(55,71)"/>
<path d="M0 0 C3.79295753 3.23789058 6.13061171 6.3757237 8 11 C8 12.32 8 13.64 8 15 C4.37 15 0.74 15 -3 15 C-3.45375 14.05125 -3.9075 13.1025 -4.375 12.125 C-5.80238254 8.99686321 -5.80238254 8.99686321 -8 7 C-8.40047444 4.67724823 -8.7397104 2.34260643 -9 0 C-5.6473588 -0.8381603 -3.21728297 -1.4075613 0 0 Z " fill="#D9A43E" transform="translate(134,156)"/>
<path d="M0 0 C1.25 2.0625 1.25 2.0625 2 4 C-4.205861 8.07813723 -9.61234874 8.14095932 -16.8125 8.0625 C-17.60076172 8.05798828 -18.38902344 8.05347656 -19.20117188 8.04882812 C-21.13414761 8.03711312 -23.06708393 8.01917998 -25 8 C-25 6.35 -25 4.7 -25 3 C-24.32195312 3.04640625 -23.64390625 3.0928125 -22.9453125 3.140625 C-16.52396457 3.38965234 -11.97432024 2.60687498 -6.19140625 -0.22265625 C-3.63394157 -1.1298496 -2.48351756 -1.03885702 0 0 Z " fill="#292722" transform="translate(93,111)"/>
<path d="M0 0 C0.33 0 0.66 0 1 0 C1.33 17.49 1.66 34.98 2 53 C0.68 53 -0.64 53 -2 53 C-2 47.72 -2 42.44 -2 37 C-1.34 37 -0.68 37 0 37 C0 24.79 0 12.58 0 0 Z " fill="#DBB472" transform="translate(67,119)"/>
<path d="M0 0 C4.28818833 0.47646537 6.05199617 3.05199617 9 6 C11.27734029 7.48027119 13.59526142 8.7269031 16 10 C16 11.65 16 13.3 16 15 C9.77104914 13.72226649 5.06212914 9.74627721 1 5 C0.23828125 2.23828125 0.23828125 2.23828125 0 0 Z " fill="#2C2C2A" transform="translate(50,103)"/>
<path d="M0 0 C1.48828125 1.14453125 1.48828125 1.14453125 3 3 C3.29296875 5.69921875 3.29296875 5.69921875 3.1875 8.6875 C3.16042969 9.68136719 3.13335937 10.67523438 3.10546875 11.69921875 C3.07066406 12.45847656 3.03585938 13.21773437 3 14 C1.35 14.33 -0.3 14.66 -2 15 C-4.48887372 10.31506124 -3.85687773 7.0555786 -3 2 C-2.01 2 -1.02 2 0 2 C0 1.34 0 0.68 0 0 Z " fill="#1F1F1B" transform="translate(105,81)"/>
<path d="M0 0 C0.66 0 1.32 0 2 0 C3.2890625 1.4609375 3.2890625 1.4609375 4.625 3.375 C5.29402344 4.31472656 5.29402344 4.31472656 5.9765625 5.2734375 C7 7 7 7 7 9 C7.66 9 8.32 9 9 9 C9.99 11.97 10.98 14.94 12 18 C12.66 18 13.32 18 14 18 C14.33 19.98 14.66 21.96 15 24 C15.99 24.33 16.98 24.66 18 25 C18.33 25.99 18.66 26.98 19 28 C19.66 28.66 20.32 29.32 21 30 C20.34 30.66 19.68 31.32 19 32 C17.44888621 29.56955761 15.90072336 27.13729927 14.35546875 24.703125 C12.53303944 21.83318305 10.69884223 18.9709336 8.86328125 16.109375 C7.76285832 14.3855204 6.66259851 12.66156165 5.5625 10.9375 C4.74604004 9.66942505 4.74604004 9.66942505 3.91308594 8.37573242 C3.40680664 7.58013916 2.90052734 6.7845459 2.37890625 5.96484375 C1.69163452 4.89157837 1.69163452 4.89157837 0.99047852 3.79663086 C0 2 0 2 0 0 Z " fill="#CFAC5C" transform="translate(70,74)"/>
<path d="M0 0 C0.66 0 1.32 0 2 0 C3.35278115 1.98689731 4.68568305 3.98745218 6 6 C6.66 6.33 7.32 6.66 8 7 C8.33 6.01 8.66 5.02 9 4 C9 4.66 9 5.32 9 6 C9.99 5.67 10.98 5.34 12 5 C11.814375 6.010625 11.62875 7.02125 11.4375 8.0625 C11.00231753 11.97914227 11.29146979 15.14244663 12 19 C8.75561206 16.15459828 6.61133276 12.54157114 4.3125 8.9375 C3.68891602 7.98133789 3.68891602 7.98133789 3.05273438 7.00585938 C0 2.24880696 0 2.24880696 0 0 Z " fill="#D2A44B" transform="translate(98,119)"/>
<path d="M0 0 C2.375 0.5 2.375 0.5 5 2 C6.08241903 4.66525288 6.49272107 7.1407915 7 10 C7.99 10 8.98 10 10 10 C10.433125 11.36125 10.433125 11.36125 10.875 12.75 C11.76531776 15.32202908 12.71494413 17.61346766 14 20 C14.66 19.67 15.32 19.34 16 19 C16 21.31 16 23.62 16 26 C11.93884408 21.30798491 8.90639425 16.06603243 5.75 10.75 C5.19570312 9.82703125 4.64140625 8.9040625 4.0703125 7.953125 C0 1.13585283 0 1.13585283 0 0 Z " fill="#FDF5D8" transform="translate(126,140)"/>
<path d="M0 0 C3.67230705 3.07999946 4.56802365 5.2482602 5 10 C3.35 10 1.7 10 0 10 C0 11.65 0 13.3 0 15 C-1.32 14.01 -2.64 13.02 -4 12 C-3.52494322 10.18641846 -3.04483958 8.37415821 -2.5625 6.5625 C-2.29566406 5.55316406 -2.02882813 4.54382813 -1.75390625 3.50390625 C-1 1 -1 1 0 0 Z " fill="#D7A439" transform="translate(95,95)"/>
<path d="M0 0 C1.625 1.3125 1.625 1.3125 2.625 3.3125 C1.6875 5.4375 1.6875 5.4375 0.625 7.3125 C-6.94642857 5.45535714 -6.94642857 5.45535714 -9.375 2.3125 C-3.00833333 -0.87083333 -3.00833333 -0.87083333 0 0 Z " fill="#242424" transform="translate(78.375,50.6875)"/>
<path d="M0 0 C0.66 0.66 1.32 1.32 2 2 C3.32 2 4.64 2 6 2 C5.5020163 5.73487777 5.12508244 7.81237635 3 11 C2.01 10.67 1.02 10.34 0 10 C-1.1875 7.4375 -1.1875 7.4375 -2 5 C-1.34 5 -0.68 5 0 5 C0 3.35 0 1.7 0 0 Z " fill="#29251F" transform="translate(102,93)"/>
<path d="M0 0 C0.4125 0.45375 0.825 0.9075 1.25 1.375 C3.06408095 3.05950374 4.75285627 3.99265971 7 5 C5.824375 5.61875 5.824375 5.61875 4.625 6.25 C1.94108344 8.0392777 1.11901051 9.04988139 0 12 C-0.3403125 10.824375 -0.3403125 10.824375 -0.6875 9.625 C-1.78125 6.78125 -1.78125 6.78125 -4.625 5.6875 C-5.40875 5.460625 -6.1925 5.23375 -7 5 C-3.25 3 -3.25 3 -1 3 C-0.67 2.01 -0.34 1.02 0 0 Z " fill="#353535" transform="translate(36,117)"/>
<path d="M0 0 C0.66 0 1.32 0 2 0 C2.5625 1.9375 2.5625 1.9375 3 4 C2.67 4.33 2.34 4.66 2 5 C1.83996512 7.66426685 1.74057111 10.30560428 1.68359375 12.97265625 C1.66281265 13.77029892 1.64203156 14.56794159 1.62062073 15.38975525 C1.55503842 17.94724611 1.49620033 20.5048428 1.4375 23.0625 C1.39432301 24.79232882 1.35070899 26.52214679 1.30664062 28.25195312 C1.19934828 32.5011926 1.09810574 36.7505389 1 41 C0.67 41 0.34 41 0 41 C0 27.47 0 13.94 0 0 Z " fill="#FEFADC" transform="translate(68,73)"/>
<path d="M0 0 C3.35435922 1.38801071 5.11290303 2.88629 7 6 C7 6.99 7 7.98 7 9 C11.29 9 15.58 9 20 9 C20 6.69 20 4.38 20 2 C20.33 2 20.66 2 21 2 C21 4.64 21 7.28 21 10 C15.87413643 10.52823785 11.10736569 10.81120124 6 10 C2.96595226 7.43859286 1.40212462 4.69016879 0 1 C0 0.67 0 0.34 0 0 Z " fill="#D2AE66" transform="translate(124,162)"/>
<path d="M0 0 C1.9375 0.8125 1.9375 0.8125 4 2 C4.33 2.99 4.66 3.98 5 5 C3.68 5.33 2.36 5.66 1 6 C1 7.65 1 9.3 1 11 C-0.9375 10.1875 -0.9375 10.1875 -3 9 C-3.33 8.01 -3.66 7.02 -4 6 C-3.67 5.34 -3.34 4.68 -3 4 C-2.01 4 -1.02 4 0 4 C0 2.68 0 1.36 0 0 Z " fill="#D6A637" transform="translate(105,115)"/>
<path d="M0 0 C1.98 0.66 3.96 1.32 6 2 C6.66 5.3 7.32 8.6 8 12 C8.99 12.33 9.98 12.66 11 13 C10.67 14.32 10.34 15.64 10 17 C2.51708428 5.47835991 2.51708428 5.47835991 0 0 Z " fill="#D1A95D" transform="translate(110,139)"/>
<path d="M0 0 C3.23387892 2.95267206 5.22245249 5.87922748 7.25 9.75 C7.77078125 10.73484375 8.2915625 11.7196875 8.828125 12.734375 C9.21484375 13.48203125 9.6015625 14.2296875 10 15 C8.35 15 6.7 15 5 15 C5 13.02 5 11.04 5 9 C3.68 8.34 2.36 7.68 1 7 C1 5.68 1 4.36 1 3 C0.01 2.67 -0.98 2.34 -2 2 C-1.34 1.34 -0.68 0.68 0 0 Z " fill="#FCF2DE" transform="translate(94,115)"/>
<path d="M0 0 C1.65 0.99 3.3 1.98 5 3 C3.02 3.99 3.02 3.99 1 5 C1 5.66 1 6.32 1 7 C-1.75 7.75 -1.75 7.75 -5 8 C-7.375 6.0625 -7.375 6.0625 -9 4 C-7.35 3.67 -5.7 3.34 -4 3 C-4 3.66 -4 4.32 -4 5 C-2.68 4.67 -1.36 4.34 0 4 C-0.33 3.01 -0.66 2.02 -1 1 C-0.67 0.67 -0.34 0.34 0 0 Z " fill="#2E2D32" transform="translate(87,58)"/>
<path d="M0 0 C1.0725 0.474375 2.145 0.94875 3.25 1.4375 C5.80839865 2.53766332 8.25835017 3.45167003 11 4 C10.67 4.99 10.34 5.98 10 7 C9.34 7 8.68 7 8 7 C6.32254318 7.63903117 4.65438613 8.30341637 3 9 C2 6 1 3 0 0 Z " fill="#1F1F1F" transform="translate(62,43)"/>
<path d="M0 0 C2.97184984 2.97184984 4.3622882 5.17867247 6 9 C6 10.32 6 11.64 6 13 C4.68 13 3.36 13 2 13 C1.34 8.71 0.68 4.42 0 0 Z " fill="#CDAD47" transform="translate(136,158)"/>
<path d="M0 0 C3.23387892 2.95267206 5.22245249 5.87922748 7.25 9.75 C7.77078125 10.73484375 8.2915625 11.7196875 8.828125 12.734375 C9.21484375 13.48203125 9.6015625 14.2296875 10 15 C8.35 15 6.7 15 5 15 C4.87625 14.030625 4.7525 13.06125 4.625 12.0625 C4.315625 10.5465625 4.315625 10.5465625 4 9 C3.34 8.67 2.68 8.34 2 8 C1.3671875 6.15234375 1.3671875 6.15234375 0.875 3.9375 C0.70742187 3.20402344 0.53984375 2.47054687 0.3671875 1.71484375 C0.24601562 1.14894531 0.12484375 0.58304687 0 0 Z " fill="#D0AF61" transform="translate(110,116)"/>
<path d="M0 0 C0.33 0.66 0.66 1.32 1 2 C0.29296875 3.8046875 0.29296875 3.8046875 -0.8125 5.875 C-1.16957031 6.55304688 -1.52664062 7.23109375 -1.89453125 7.9296875 C-2.25933594 8.61289063 -2.62414063 9.29609375 -3 10 C-3.46986328 11.08667969 -3.46986328 11.08667969 -3.94921875 12.1953125 C-5 14 -5 14 -8 15 C-6.31910452 8.85038239 -4.40439414 4.6424695 0 0 Z " fill="#414141" transform="translate(55,71)"/>
<path d="M0 0 C-0.33 0.99 -0.66 1.98 -1 3 C0.98 3 2.96 3 5 3 C5 3.33 5 3.66 5 4 C4.07767578 4.09087891 4.07767578 4.09087891 3.13671875 4.18359375 C2.32847656 4.26738281 1.52023438 4.35117187 0.6875 4.4375 C-0.11300781 4.51871094 -0.91351563 4.59992187 -1.73828125 4.68359375 C-4.16087179 4.95265693 -4.16087179 4.95265693 -7 6 C-7.33 4.35 -7.66 2.7 -8 1 C-5.29120665 -0.35439668 -2.99066732 -0.06501451 0 0 Z " fill="#3C3C3C" transform="translate(78,13)"/>
<path d="M0 0 C1.32 0 2.64 0 4 0 C3.67 3.3 3.34 6.6 3 10 C2.34 10 1.68 10 1 10 C-0.1577506 6.52674819 -0.06866652 3.63932552 0 0 Z " fill="#C9B06A" transform="translate(141,66)"/>
<path d="M0 0 C0.33 0.99 0.66 1.98 1 3 C-0.093125 3.309375 -1.18625 3.61875 -2.3125 3.9375 C-4.55407994 4.58337897 -6.7869351 5.2623117 -9 6 C-9.5625 4.0625 -9.5625 4.0625 -10 2 C-7.75858472 -0.24141528 -3.06492894 0 0 0 Z " fill="#D4A737" transform="translate(78,67)"/>
<path d="M0 0 C3.97497544 3.40712181 5.86793788 7.32760855 8 12 C6.68 12 5.36 12 4 12 C1.8480563 8.77208445 1.79913557 7.71599191 2 4 C1.34 4 0.68 4 0 4 C0 2.68 0 1.36 0 0 Z " fill="#FBF4D4" transform="translate(122,160)"/>
<path d="M0 0 C-1.875 3.875 -1.875 3.875 -3 5 C-3.33 5.66 -3.66 6.32 -4 7 C-4.66 7 -5.32 7 -6 7 C-6.33 4.69 -6.66 2.38 -7 0 C-3.98968256 -0.93423645 -3.13349732 -1.04449911 0 0 Z " fill="#F6F2E1" transform="translate(112,103)"/>
<path d="M0 0 C0.33 0 0.66 0 1 0 C1.98248524 4.0527516 2.08159574 7.83861737 2 12 C1.01 12 0.02 12 -1 12 C-1.02687279 10.18757948 -1.04633715 8.37504767 -1.0625 6.5625 C-1.07410156 5.55316406 -1.08570312 4.54382813 -1.09765625 3.50390625 C-1 1 -1 1 0 0 Z " fill="#342F32" transform="translate(100,86)"/>
<path d="M0 0 C1.53125 1.6875 1.53125 1.6875 1.78125 4.375 C1.69875 5.138125 1.61625 5.90125 1.53125 6.6875 C1.03109375 5.87925781 0.5309375 5.07101563 0.015625 4.23828125 C-2.7546205 1.39398831 -4.2481248 1.0631508 -8.15234375 0.89257812 C-8.83425781 0.88677734 -9.51617187 0.88097656 -10.21875 0.875 C-10.91613281 0.84986328 -11.61351563 0.82472656 -12.33203125 0.79882812 C-14.04366949 0.74021038 -15.7562686 0.71092947 -17.46875 0.6875 C-17.46875 0.3575 -17.46875 0.0275 -17.46875 -0.3125 C-15.05263629 -0.56192467 -12.63815879 -0.78757501 -10.21875 -1 C-9.53683594 -1.07283203 -8.85492188 -1.14566406 -8.15234375 -1.22070312 C-4.9503308 -1.48494691 -2.86921303 -1.52540439 0 0 Z " fill="#F8E7C6" transform="translate(82.46875,65.3125)"/>
<path d="M0 0 C2.31 0 4.62 0 7 0 C7 1.32 7 2.64 7 4 C3.67465243 5.10844919 1.37817425 4.84454356 -2 4 C-1.34 2.68 -0.68 1.36 0 0 Z " fill="#1A1D18" transform="translate(80,58)"/>
<path d="M0 0 C1.33897583 0.95043374 2.67105427 1.91059147 4 2.875 C5.11375 3.67550781 5.11375 3.67550781 6.25 4.4921875 C6.8275 4.98976563 7.405 5.48734375 8 6 C8 6.66 8 7.32 8 8 C2.25 7.25 2.25 7.25 0 5 C0 3.33333333 0 1.66666667 0 0 Z " fill="#F0F2F2" transform="translate(70,56)"/>
<path d="M0 0 C2.97 0 5.94 0 9 0 C9 1.32 9 2.64 9 4 C5.7 3.67 2.4 3.34 -1 3 C-0.67 2.01 -0.34 1.02 0 0 Z " fill="#1F1F1F" transform="translate(78,13)"/>
<path d="M0 0 C7 8.44827586 7 8.44827586 7 12 C5.68 11.34 4.36 10.68 3 10 C3 9.34 3 8.68 3 8 C2.34 8 1.68 8 1 8 C0.67 5.36 0.34 2.72 0 0 Z " fill="#D4AE66" transform="translate(86,76)"/>
<path d="M0 0 C3.81684226 1.55500981 6.19195732 4.03595495 9 7 C7 8 7 8 5.0625 7.875 C2.12140904 6.62726444 1.3711849 4.81092904 0 2 C0 1.34 0 0.68 0 0 Z " fill="#EEEDE9" transform="translate(83,67)"/>
<path d="M0 0 C-0.66 4.29 -1.32 8.58 -2 13 C-4.39763185 10.60236815 -4.34280586 9.66726502 -4.625 6.375 C-4.69976563 5.55773437 -4.77453125 4.74046875 -4.8515625 3.8984375 C-4.90054687 3.27195313 -4.94953125 2.64546875 -5 2 C-2 0 -2 0 0 0 Z " fill="#454545" transform="translate(22,143)"/>
<path d="M0 0 C0.99 0.66 1.98 1.32 3 2 C2.34 4.31 1.68 6.62 1 9 C0.34 9 -0.32 9 -1 9 C-1 7.35 -1 5.7 -1 4 C-1.66 3.67 -2.32 3.34 -3 3 C-2.01 2.01 -1.02 1.02 0 0 Z " fill="#1D1D1F" transform="translate(98,71)"/>
<path d="M0 0 C2.42581871 2.42581871 2.96355664 4.07433869 3.09765625 7.48046875 C3.08605469 8.37378906 3.07445313 9.26710938 3.0625 10.1875 C3.05347656 11.08855469 3.04445313 11.98960938 3.03515625 12.91796875 C3.02355469 13.60503906 3.01195313 14.29210937 3 15 C1.59499644 12.35005657 0.55703916 9.84288215 -0.1875 6.9375 C-0.36667969 6.26589844 -0.54585938 5.59429687 -0.73046875 4.90234375 C-1 3 -1 3 0 0 Z " fill="#EEF1F2" transform="translate(96,80)"/>
<path d="M0 0 C2.94721162 2.74395564 5.19168608 5.38337216 7 9 C6.67 9.66 6.34 10.32 6 11 C3.57223333 9.70519111 2.23032326 8.64161481 1.2890625 6.01953125 C0.80217802 4.0261274 0.39608139 2.01341375 0 0 Z " fill="#FBEDCC" transform="translate(104,131)"/>
<path d="M0 0 C0.33 1.32 0.66 2.64 1 4 C-2.63 3.67 -6.26 3.34 -10 3 C-10 2.34 -10 1.68 -10 1 C-6.7 0.67 -3.4 0.34 0 0 Z " fill="#555555" transform="translate(10,135)"/>
<path d="M0 0 C5.71621622 2.43243243 5.71621622 2.43243243 7 5 C7 7 7 7 5 10 C4.16121545 8.71186658 3.32913217 7.41936744 2.5 6.125 C2.0359375 5.40570313 1.571875 4.68640625 1.09375 3.9453125 C0 2 0 2 0 0 Z " fill="#FCF4DA" transform="translate(120,130)"/>
<path d="M0 0 C0.66 0 1.32 0 2 0 C2.81837442 1.41328129 3.62946219 2.83078346 4.4375 4.25 C4.88996094 5.03890625 5.34242187 5.8278125 5.80859375 6.640625 C6.89311602 8.78833468 7.53148716 10.65205061 8 13 C4.32117927 9.71533863 2.24849899 6.33639092 0 2 C0 1.34 0 0.68 0 0 Z " fill="#D0AF6B" transform="translate(98,119)"/>
<path d="M0 0 C0.66 1.32 1.32 2.64 2 4 C2.66 4 3.32 4 4 4 C5.625 6.75 5.625 6.75 7 10 C6.0859375 12.203125 6.0859375 12.203125 5 14 C0.59225513 4.58997722 0.59225513 4.58997722 0 0 Z " fill="#CFA85D" transform="translate(95,91)"/>
<path d="M0 0 C4.20626034 1.50223584 5.73900021 4.28550034 8 8 C7.01 8.33 6.02 8.66 5 9 C4.16094435 7.87926138 3.32892169 6.75325453 2.5 5.625 C2.0359375 4.99851562 1.571875 4.37203125 1.09375 3.7265625 C0 2 0 2 0 0 Z " fill="#333333" transform="translate(96,66)"/>
<path d="M0 0 C1.67542976 0.28604898 3.34385343 0.61781233 5 1 C2.25 5.875 2.25 5.875 0 7 C-0.38133299 5.0085944 -0.71325582 3.00720923 -1 1 C-0.67 0.67 -0.34 0.34 0 0 Z " fill="#2A2A2A" transform="translate(67,15)"/>
<path d="M0 0 C2.40575607 2.18517099 3.79535581 4.25919671 5.1875 7.1875 C5.53167969 7.90292969 5.87585938 8.61835938 6.23046875 9.35546875 C6.48441406 9.89816406 6.73835938 10.44085938 7 11 C5.68 10.67 4.36 10.34 3 10 C3.33 9.67 3.66 9.34 4 9 C3.525625 8.62875 3.05125 8.2575 2.5625 7.875 C0.47794198 5.37353038 0.35378509 3.18406582 0 0 Z " fill="#FAEEC9" transform="translate(113,145)"/>
<path d="M0 0 C2.54131358 2.30283254 4.07110295 4.67313793 5.6875 7.6875 C6.12449219 8.49574219 6.56148438 9.30398437 7.01171875 10.13671875 C7.33785156 10.75160156 7.66398437 11.36648437 8 12 C6.140625 11.77734375 6.140625 11.77734375 4 11 C2.734375 9.00390625 2.734375 9.00390625 1.75 6.5625 C1.41484375 5.75941406 1.0796875 4.95632812 0.734375 4.12890625 C0 2 0 2 0 0 Z " fill="#FCF5D5" transform="translate(80,92)"/>
<path d="M0 0 C0.33 0.99 0.66 1.98 1 3 C1.99 3.33 2.98 3.66 4 4 C4.33 4.99 4.66 5.98 5 7 C5.66 7.66 6.32 8.32 7 9 C6.34 9.66 5.68 10.32 5 11 C3.02 8.03 1.04 5.06 -1 2 C-0.67 1.34 -0.34 0.68 0 0 Z " fill="#D3B36C" transform="translate(84,95)"/>
<path d="M0 0 C2.475 0.99 2.475 0.99 5 2 C5.33 4.64 5.66 7.28 6 10 C3.47650757 6.87567603 1.72743854 3.61939504 0 0 Z " fill="#FCF5D6" transform="translate(92,85)"/>
<path d="M0 0 C2.31 0.33 4.62 0.66 7 1 C6.01 2.32 5.02 3.64 4 5 C2.68 4.34 1.36 3.68 0 3 C0 2.01 0 1.02 0 0 Z " fill="#212121" transform="translate(88,14)"/>
<path d="M0 0 C0.33 0 0.66 0 1 0 C1 3.63 1 7.26 1 11 C0.34 11 -0.32 11 -1 11 C-2.26264601 6.70700357 -1.62950412 4.12168689 0 0 Z " fill="#DDA051" transform="translate(143,160)"/>
<path d="M0 0 C2.475 0.495 2.475 0.495 5 1 C5.33 3.64 5.66 6.28 6 9 C3.59927045 6.11912454 1.52708963 3.43595166 0 0 Z " fill="#FCF5DB" transform="translate(112,118)"/>
<path d="M0 0 C0.66 0 1.32 0 2 0 C2.66 1.98 3.32 3.96 4 6 C2.68 6 1.36 6 0 6 C0 4.02 0 2.04 0 0 Z " fill="#D2B055" transform="translate(106,110)"/>
<path d="M0 0 C2.13093906 1.06546953 3.36587557 2.29159719 5 4 C4.34 4.66 3.68 5.32 3 6 C2.01 5.34 1.02 4.68 0 4 C-0.99 4.66 -1.98 5.32 -3 6 C-1.125 1.125 -1.125 1.125 0 0 Z " fill="#333333" transform="translate(61,21)"/>
<path d="M0 0 C0.66 0.33 1.32 0.66 2 1 C1.34 2.32 0.68 3.64 0 5 C-2.475 4.01 -2.475 4.01 -5 3 C-2 1 -2 1 0 0 Z " fill="#1D1D1D" transform="translate(79,53)"/>
<path d="M0 0 C1.32 0 2.64 0 4 0 C4 1.65 4 3.3 4 5 C3.01 5 2.02 5 1 5 C0.67 3.35 0.34 1.7 0 0 Z " fill="#D9A436" transform="translate(125,147)"/>
<path d="M0 0 C0.33 0 0.66 0 1 0 C0.67 2.97 0.34 5.94 0 9 C-0.66 8.67 -1.32 8.34 -2 8 C-2.20086443 4.28400809 -2.1519437 3.22791555 0 0 Z " fill="#212121" transform="translate(49,83)"/>
<path d="M0 0 C0.66 0 1.32 0 2 0 C4.1875 2.8125 4.1875 2.8125 6 6 C5.67 6.99 5.34 7.98 5 9 C4.16396622 7.68921847 3.3312426 6.37632511 2.5 5.0625 C2.0359375 4.33160156 1.571875 3.60070312 1.09375 2.84765625 C0 1 0 1 0 0 Z " fill="#FDF7DB" transform="translate(86,75)"/>
</svg>
