<?xml version="1.0" encoding="UTF-8"?>
<svg version="1.1" xmlns="http://www.w3.org/2000/svg" width="181" height="154">
<path d="M0 0 C59.73 0 119.46 0 181 0 C181 50.82 181 101.64 181 154 C121.27 154 61.54 154 0 154 C0 103.18 0 52.36 0 0 Z " fill="#282F36" transform="translate(0,0)"/>
<path d="M0 0 C1.18625977 -0.00580078 1.18625977 -0.00580078 2.39648438 -0.01171875 C3.17701172 -0.01042969 3.95753906 -0.00914063 4.76171875 -0.0078125 C5.46643311 -0.00668457 6.17114746 -0.00555664 6.8972168 -0.00439453 C10.05361666 0.16470402 13.18334271 0.67797753 16.3125 1.125 C16.3125 6.405 16.3125 11.685 16.3125 17.125 C14.3125 14.125 14.3125 14.125 13.0625 11.125 C10.81467749 7.27158998 9.57389104 6.47070243 5.3125 5.125 C0.57367134 4.53995942 -4.32074212 3.98242723 -8.7265625 6.109375 C-12.1493299 8.84084455 -14.38027743 11.93055304 -14.98828125 16.2734375 C-14.99214844 17.00820313 -14.99601562 17.74296875 -15 18.5 C-15.02513672 19.59441406 -15.02513672 19.59441406 -15.05078125 20.7109375 C-13.96106723 27.95226294 -9.39012676 31.46370427 -3.9375 35.6875 C-3.2465625 36.23857422 -2.555625 36.78964844 -1.84375 37.35742188 C2.44541531 40.75569853 6.83597319 43.97854071 11.3125 47.125 C11.3125 42.835 11.3125 38.545 11.3125 34.125 C16.65460138 33.23816894 21.04308353 32.97579058 26.3125 34.125 C29.91684338 37.49680509 31.92593591 41.52173681 34.12548828 45.87060547 C36.30652712 50.01287462 38.87752319 53.91863079 41.375 57.875 C42.49713138 59.68735553 43.61684911 61.50120729 44.734375 63.31640625 C45.31509766 64.25887207 45.89582031 65.20133789 46.49414062 66.17236328 C47.09419922 67.1467334 47.69425781 68.12110352 48.3125 69.125 C49.24739258 70.64262939 49.24739258 70.64262939 50.20117188 72.19091797 C55.99176562 81.59261462 61.77787598 90.99707033 67.55622864 100.40629578 C68.63380251 102.16076684 69.71174007 103.9150139 70.78979492 105.66918945 C72.13444545 107.85737558 73.47841004 110.04598345 74.8215332 112.23510742 C75.43859131 113.23904541 76.05564941 114.2429834 76.69140625 115.27734375 C77.2232251 116.14351318 77.75504395 117.00968262 78.30297852 117.90209961 C81.27230007 122.6643416 84.29949374 127.39027588 87.3125 132.125 C87.3125 99.785 87.3125 67.445 87.3125 34.125 C88.6325 34.125 89.9525 34.125 91.3125 34.125 C91.3125 69.105 91.3125 104.085 91.3125 140.125 C86.3625 140.125 81.4125 140.125 76.3125 140.125 C72.89807218 136.65270053 71.48017624 134.36030588 69.3125 130.125 C67.97294271 127.84716949 66.59790587 125.59272018 65.22241211 123.33642578 C63.64391827 120.74083657 62.08978205 118.1317964 60.5390625 115.51953125 C57.43572729 110.31136597 54.26210956 105.14944866 51.0625 100 C46.12661009 92.05338172 41.21153129 84.09440269 36.3125 76.125 C29.33498581 64.77769541 22.33147275 53.44669919 15.3125 42.125 C14.9825 45.095 14.6525 48.065 14.3125 51.125 C15.6325 51.785 16.9525 52.445 18.3125 53.125 C24.94835889 59.74630657 29.35475574 68.29707489 29.75 77.75 C29.14015669 87.84828769 24.73910374 94.34418789 17.3125 101.125 C16.3225 101.455 15.3325 101.785 14.3125 102.125 C14.6425 114.665 14.9725 127.205 15.3125 140.125 C13.9925 140.125 12.6725 140.125 11.3125 140.125 C11.127807 128.09943352 11.69928934 116.1315343 12.3125 104.125 C11.51328125 104.44597656 10.7140625 104.76695313 9.890625 105.09765625 C1.23757793 107.58210099 -10.35372699 107.88068704 -18.5625 103.9375 C-25.16519327 99.85666875 -29.72596789 94.44037064 -32.9375 87.375 C-34.89530681 78.89117047 -33.81022835 71.79090383 -29.6875 64.125 C-28.1407521 61.9253755 -26.54367726 60.08429822 -24.6875 58.125 C-24.3575 58.785 -24.0275 59.445 -23.6875 60.125 C-24.4296875 61.9296875 -24.4296875 61.9296875 -25.5625 64 C-29.40672484 71.07014778 -29.87375815 78.84294514 -28.109375 86.69921875 C-25.47025281 93.76486862 -20.20838312 96.86455844 -13.6875 100.125 C-11.14985559 100.30395527 -8.66485689 100.40270744 -6.125 100.4375 C-5.44630859 100.46650391 -4.76761719 100.49550781 -4.06835938 100.52539062 C1.78291468 100.5970839 6.15672338 98.78908139 11.3125 96.125 C14.27295183 74.65402389 14.27295183 74.65402389 8.20703125 55.19140625 C4.96344708 52.30943242 1.34768861 50.21467026 -2.51904297 48.27246094 C-5.96531497 46.44883131 -8.89901164 44.04850862 -11.9375 41.625 C-12.95328125 40.8721875 -13.9690625 40.119375 -15.015625 39.34375 C-20.21266506 35.02807931 -23.01056967 30.81838364 -23.98046875 24.09375 C-24.40520626 17.57345519 -22.45032702 12.4234915 -18.6875 7.125 C-12.63810889 1.41104358 -8.23050497 -0.03928642 0 0 Z " fill="#12F2D2" transform="translate(82.6875,9.875)"/>
<path d="M0 0 C1.18625977 -0.00580078 1.18625977 -0.00580078 2.39648438 -0.01171875 C3.17701172 -0.01042969 3.95753906 -0.00914063 4.76171875 -0.0078125 C5.46643311 -0.00668457 6.17114746 -0.00555664 6.8972168 -0.00439453 C10.05361666 0.16470402 13.18334271 0.67797753 16.3125 1.125 C16.3125 6.405 16.3125 11.685 16.3125 17.125 C14.3125 14.125 14.3125 14.125 13.0625 11.125 C10.81467749 7.27158998 9.57389104 6.47070243 5.3125 5.125 C0.57367134 4.53995942 -4.32074212 3.98242723 -8.7265625 6.109375 C-12.1493299 8.84084455 -14.38027743 11.93055304 -14.98828125 16.2734375 C-14.99214844 17.00820313 -14.99601562 17.74296875 -15 18.5 C-15.02513672 19.59441406 -15.02513672 19.59441406 -15.05078125 20.7109375 C-13.96106723 27.95226294 -9.39012676 31.46370427 -3.9375 35.6875 C-3.2465625 36.23857422 -2.555625 36.78964844 -1.84375 37.35742188 C2.44541531 40.75569853 6.83597319 43.97854071 11.3125 47.125 C11.3125 44.815 11.3125 42.505 11.3125 40.125 C12.3025 39.795 13.2925 39.465 14.3125 39.125 C15.62407516 41.74815032 15.20899988 43.35533436 14.875 46.25 C14.77316406 47.16007812 14.67132813 48.07015625 14.56640625 49.0078125 C14.48261719 49.70648438 14.39882812 50.40515625 14.3125 51.125 C14.9003125 51.37378906 15.488125 51.62257812 16.09375 51.87890625 C22.7667928 55.62661867 26.3920403 63.42234885 28.65625 70.4296875 C30.39695511 77.57901208 29.80610863 84.58400689 26.3125 91.125 C19.16611217 100.50712928 19.16611217 100.50712928 14.3125 102.125 C14.6425 114.665 14.9725 127.205 15.3125 140.125 C13.9925 140.125 12.6725 140.125 11.3125 140.125 C11.127807 128.09943352 11.69928934 116.1315343 12.3125 104.125 C11.51328125 104.44597656 10.7140625 104.76695313 9.890625 105.09765625 C1.23757793 107.58210099 -10.35372699 107.88068704 -18.5625 103.9375 C-25.16519327 99.85666875 -29.72596789 94.44037064 -32.9375 87.375 C-34.89530681 78.89117047 -33.81022835 71.79090383 -29.6875 64.125 C-28.1407521 61.9253755 -26.54367726 60.08429822 -24.6875 58.125 C-24.3575 58.785 -24.0275 59.445 -23.6875 60.125 C-24.4296875 61.9296875 -24.4296875 61.9296875 -25.5625 64 C-29.40672484 71.07014778 -29.87375815 78.84294514 -28.109375 86.69921875 C-25.47025281 93.76486862 -20.20838312 96.86455844 -13.6875 100.125 C-11.14985559 100.30395527 -8.66485689 100.40270744 -6.125 100.4375 C-5.44630859 100.46650391 -4.76761719 100.49550781 -4.06835938 100.52539062 C1.78291468 100.5970839 6.15672338 98.78908139 11.3125 96.125 C14.27295183 74.65402389 14.27295183 74.65402389 8.20703125 55.19140625 C4.96344708 52.30943242 1.34768861 50.21467026 -2.51904297 48.27246094 C-5.96531497 46.44883131 -8.89901164 44.04850862 -11.9375 41.625 C-12.95328125 40.8721875 -13.9690625 40.119375 -15.015625 39.34375 C-20.21266506 35.02807931 -23.01056967 30.81838364 -23.98046875 24.09375 C-24.40520626 17.57345519 -22.45032702 12.4234915 -18.6875 7.125 C-12.63810889 1.41104358 -8.23050497 -0.03928642 0 0 Z " fill="#13ECCD" transform="translate(82.6875,9.875)"/>
<path d="M0 0 C1.69704464 3.01696824 2.33885603 5.58559949 2.8125 9 C3.45516488 12.23712681 3.8664819 13.82197586 5.875 16.5 C10.69202055 18.81216986 15.72937998 19.36113697 21 20 C21 20.33 21 20.66 21 21 C19.78763672 21.14695313 19.78763672 21.14695313 18.55078125 21.296875 C10.43771034 22.28201269 10.43771034 22.28201269 4 27 C2.56549973 29.86900055 2.62088917 32.73472913 2.37890625 35.90625 C2 38 2 38 0 40 C-0.03738281 39.33613281 -0.07476563 38.67226562 -0.11328125 37.98828125 C-0.46323371 30.88289883 -0.46323371 30.88289883 -4 25 C-8.44054899 22.96832025 -13.1866055 21.77635395 -18 21 C-18 20.67 -18 20.34 -18 20 C-17.26394531 19.91363281 -16.52789062 19.82726562 -15.76953125 19.73828125 C-9.4863457 18.83356893 -5.86948017 18.1593069 -2 13 C-0.71553081 10.43106162 -0.67022856 8.23423663 -0.4375 5.375 C-0.35371094 4.37210937 -0.26992188 3.36921875 -0.18359375 2.3359375 C-0.09271484 1.17964844 -0.09271484 1.17964844 0 0 Z " fill="#13E8CA" transform="translate(22,110)"/>
<path d="M0 0 C1.32 0 2.64 0 4 0 C3.67 28.71 3.34 57.42 3 87 C2.67 87 2.34 87 2 87 C1.98969254 86.17553375 1.97938507 85.3510675 1.96876526 84.50161743 C1.86989978 76.64874826 1.76727743 68.79593845 1.66066074 60.94317055 C1.60600323 56.90809993 1.55268948 52.8730218 1.50268555 48.83789062 C1.25230612 24.40106775 1.25230612 24.40106775 0 0 Z " fill="#14E2C5" transform="translate(170,44)"/>
<path d="M0 0 C4.28415866 4.28415866 5.29577723 7.76075838 5.375 13.75 C5.30254247 19.60456835 3.86251634 23.93948004 1 29 C0.67 29 0.34 29 0 29 C0 19.43 0 9.86 0 0 Z " fill="#28343A" transform="translate(97,74)"/>
<path d="M0 0 C0.33 0 0.66 0 1 0 C1.33 12.21 1.66 24.42 2 37 C0.68 37 -0.64 37 -2 37 C-2 32.38 -2 27.76 -2 23 C-1.67 23 -1.34 23 -1 23 C-0.67 15.41 -0.34 7.82 0 0 Z " fill="#15D5BB" transform="translate(96,113)"/>
<path d="M0 0 C0.33 0 0.66 0 1 0 C1.226875 0.94875 1.45375 1.8975 1.6875 2.875 C2.69083714 6.19323388 2.69083714 6.19323388 5.625 7.375 C6.40875 7.58125 7.1925 7.7875 8 8 C7.401875 8.20625 6.80375 8.4125 6.1875 8.625 C3.18981233 10.50926082 2.38638224 12.81132084 1 16 C0.67 16 0.34 16 0 16 C-0.2475 15.05125 -0.495 14.1025 -0.75 13.125 C-1.6857077 9.91306809 -1.6857077 9.91306809 -4.125 8.625 C-4.74375 8.41875 -5.3625 8.2125 -6 8 C-4.7934375 7.4121875 -4.7934375 7.4121875 -3.5625 6.8125 C-0.76935262 5.23051809 -0.76935262 5.23051809 -0.1875 2.3125 C-0.125625 1.549375 -0.06375 0.78625 0 0 Z " fill="#15DABF" transform="translate(39,107)"/>
<path d="M0 0 C0.33 0.66 0.66 1.32 1 2 C0.29296875 3.8046875 0.29296875 3.8046875 -0.8125 5.875 C-1.16957031 6.55304688 -1.52664062 7.23109375 -1.89453125 7.9296875 C-2.25933594 8.61289063 -2.62414063 9.29609375 -3 10 C-3.67034989 11.33148535 -4.33812946 12.66427937 -5 14 C-5.66 12.68 -6.32 11.36 -7 10 C-6.02223933 8.51990357 -5.0427506 7.04094856 -4.0625 5.5625 C-3.51722656 4.73878906 -2.97195312 3.91507812 -2.41015625 3.06640625 C-1 1 -1 1 0 0 Z " fill="#14DFC2" transform="translate(58,68)"/>
<path d="M0 0 C3.3 0.33 6.6 0.66 10 1 C10 1.33 10 1.66 10 2 C6.7 2.33 3.4 2.66 0 3 C0 2.01 0 1.02 0 0 Z " fill="#19B9A4" transform="translate(33,129)"/>
</svg>
